<svg xmlns="http://www.w3.org/2000/svg" width="1200" height="630" viewBox="0 0 1200 630">
  <defs>
    <linearGradient id="ogBg" x1="0" y1="0" x2="1" y2="1">
      <stop offset="0%" stop-color="#09090b"/>
      <stop offset="100%" stop-color="#0f172a"/>
    </linearGradient>
    <linearGradient id="ogGrad" x1="0" y1="0" x2="1" y2="1">
      <stop offset="0%" stop-color="#2563eb"/>
      <stop offset="100%" stop-color="#7c3aed"/>
    </linearGradient>
    <linearGradient id="ogV" x1="0" y1="0" x2="0" y2="1">
      <stop offset="0%" stop-color="#ffffff"/>
      <stop offset="100%" stop-color="#e0e7ff"/>
    </linearGradient>
  </defs>
  <rect width="1200" height="630" fill="url(#ogBg)"/>

  <!-- decorative glow -->
  <circle cx="600" cy="315" r="200" fill="url(#ogGrad)" opacity="0.08"/>

  <!-- inline logo mark -->
  <g transform="translate(525, 100) scale(0.25)">
    <rect width="512" height="512" rx="108" fill="url(#ogGrad)"/>
    <!-- shield outline ring -->
    <path d="M256 72 L420 148 V296 Q420 420 256 456 Q92 420 92 296 V148 Z"
          fill="none" stroke="rgba(255,255,255,0.10)" stroke-width="10"/>
    <!-- LEFT CLAW -->
    <path d="M248 378 L135 172 L115 105 Q108 78,130 78 Q150 78,148 100 L146 140 L160 140 L158 100 Q156 78,178 78 Q198 78,190 105 L178 172 L258 378 Z" fill="url(#ogV)"/>
    <!-- RIGHT CLAW -->
    <path d="M264 378 L377 172 L397 105 Q404 78,382 78 Q362 78,364 100 L366 140 L352 140 L354 100 Q356 78,334 78 Q314 78,322 105 L334 172 L254 378 Z" fill="url(#ogV)"/>
    <!-- ANTENNAE long -->
    <path d="M200 118 Q172 75,122 48" fill="none" stroke="url(#ogV)" stroke-width="6" stroke-linecap="round"/>
    <path d="M312 118 Q340 75,390 48" fill="none" stroke="url(#ogV)" stroke-width="6" stroke-linecap="round"/>
    <!-- ANTENNAE short -->
    <path d="M214 112 Q196 80,160 62" fill="none" stroke="url(#ogV)" stroke-width="4" stroke-linecap="round" opacity="0.6"/>
    <path d="M298 112 Q316 80,352 62" fill="none" stroke="url(#ogV)" stroke-width="4" stroke-linecap="round" opacity="0.6"/>
    <!-- TAIL FAN -->
    <path d="M256 365 L234 394 L243 425 L256 412 L269 425 L278 394 Z" fill="url(#ogV)" opacity="0.85"/>
  </g>

  <!-- text -->
  <text x="600" y="340" font-family="system-ui,sans-serif" font-size="72" font-weight="800" fill="white" text-anchor="middle">Verbitto</text>
  <text x="600" y="400" font-family="system-ui,sans-serif" font-size="28" fill="#a1a1aa" text-anchor="middle">Let AI Agents Work. Get Paid Trustlessly.</text>
  <text x="600" y="450" font-family="system-ui,sans-serif" font-size="20" fill="#818cf8" text-anchor="middle">Decentralized Task Escrow on Solana</text>
</svg>
