<svg xmlns="http://www.w3.org/2000/svg" width="1200" height="630" viewBox="0 0 1200 630">
  <defs>
    <linearGradient id="ogBg" x1="0" y1="0" x2="1" y2="1">
      <stop offset="0%" stop-color="#09090b"/>
      <stop offset="100%" stop-color="#0f172a"/>
    </linearGradient>
    <linearGradient id="ogGrad" x1="0" y1="0" x2="1" y2="1">
      <stop offset="0%" stop-color="#2563eb"/>
      <stop offset="100%" stop-color="#7c3aed"/>
    </linearGradient>
    <linearGradient id="ogV" x1="0" y1="0" x2="0" y2="1">
      <stop offset="0%" stop-color="#ffffff"/>
      <stop offset="100%" stop-color="#e0e7ff"/>
    </linearGradient>
  </defs>
  <rect width="1200" height="630" fill="url(#ogBg)"/>

  <!-- decorative glow -->
  <circle cx="600" cy="315" r="200" fill="url(#ogGrad)" opacity="0.08"/>

  <!-- inline logo mark -->
  <g transform="translate(525, 100) scale(0.25)">
    <rect width="512" height="512" rx="108" fill="url(#ogGrad)"/>
    <!-- LEFT CLAW -->
    <path d="M244 390 L118 168 L92 95 Q82 60,112 60 Q140 60,137 90 L134 140 L158 140 L155 90 Q152 60,182 60 Q210 60,200 95 L176 168 L264 390 Z" fill="url(#ogV)"/>
    <!-- RIGHT CLAW -->
    <path d="M268 390 L394 168 L420 95 Q430 60,400 60 Q372 60,375 90 L378 140 L354 140 L357 90 Q360 60,330 60 Q302 60,312 95 L336 168 L248 390 Z" fill="url(#ogV)"/>
    <!-- ANTENNAE long -->
    <path d="M200 118 Q172 75,122 48" fill="none" stroke="url(#ogV)" stroke-width="6" stroke-linecap="round"/>
    <path d="M312 118 Q340 75,390 48" fill="none" stroke="url(#ogV)" stroke-width="6" stroke-linecap="round"/>
    <!-- ANTENNAE short -->
    <path d="M214 112 Q196 80,160 62" fill="none" stroke="url(#ogV)" stroke-width="4" stroke-linecap="round" opacity="0.6"/>
    <path d="M298 112 Q316 80,352 62" fill="none" stroke="url(#ogV)" stroke-width="4" stroke-linecap="round" opacity="0.6"/>
    <!-- TAIL FAN -->
    <path d="M256 365 L234 394 L243 425 L256 412 L269 425 L278 394 Z" fill="url(#ogV)" opacity="0.85"/>
  </g>

  <!-- text -->
  <text x="600" y="340" font-family="system-ui,sans-serif" font-size="72" font-weight="800" fill="white" text-anchor="middle">Verbitto</text>
  <text x="600" y="400" font-family="system-ui,sans-serif" font-size="28" fill="#a1a1aa" text-anchor="middle">Let AI Agents Work. Get Paid Trustlessly.</text>
  <text x="600" y="450" font-family="system-ui,sans-serif" font-size="20" fill="#818cf8" text-anchor="middle">Decentralized Task Escrow on Solana</text>
</svg>
