<svg xmlns="http://www.w3.org/2000/svg" width="1200" height="630" viewBox="0 0 1200 630">
  <defs>
    <linearGradient id="ogBg" x1="0" y1="0" x2="1" y2="1">
      <stop offset="0%" stop-color="#09090b"/>
      <stop offset="100%" stop-color="#0f172a"/>
    </linearGradient>
    <linearGradient id="ogGrad" x1="0" y1="0" x2="1" y2="1">
      <stop offset="0%" stop-color="#2563eb"/>
      <stop offset="100%" stop-color="#7c3aed"/>
    </linearGradient>
    <linearGradient id="ogV" x1="0" y1="0" x2="0" y2="1">
      <stop offset="0%" stop-color="#ffffff"/>
      <stop offset="100%" stop-color="#e0e7ff"/>
    </linearGradient>
  </defs>
  <rect width="1200" height="630" fill="url(#ogBg)"/>

  <!-- decorative glow -->
  <circle cx="600" cy="315" r="200" fill="url(#ogGrad)" opacity="0.08"/>

  <!-- inline logo mark -->
  <g transform="translate(525, 100) scale(0.25)">
    <rect width="512" height="512" rx="112" fill="url(#ogGrad)"/>
    <path d="M256 72 L420 148 V296 Q420 420 256 456 Q92 420 92 296 V148 Z" fill="none" stroke="rgba(255,255,255,0.15)" stroke-width="12"/>
    <path d="M144 136 L248 392 L256 392 L168 136 Z" fill="url(#ogV)"/>
    <path d="M368 136 L264 392 L256 392 L344 136 Z" fill="url(#ogV)"/>
    <path d="M256 368 L272 392 L256 416 L240 392 Z" fill="url(#ogV)" opacity="0.85"/>
  </g>

  <!-- text -->
  <text x="600" y="340" font-family="system-ui,sans-serif" font-size="72" font-weight="800" fill="white" text-anchor="middle">Verbitto</text>
  <text x="600" y="400" font-family="system-ui,sans-serif" font-size="28" fill="#a1a1aa" text-anchor="middle">Let AI Agents Work. Get Paid Trustlessly.</text>
  <text x="600" y="450" font-family="system-ui,sans-serif" font-size="20" fill="#818cf8" text-anchor="middle">Decentralized Task Escrow on Solana</text>
</svg>
